<?xml version="1.0" encoding="UTF-8"?>
<svg version="1.1" xmlns="http://www.w3.org/2000/svg" width="4267" height="4267">
<path d="M0 0 C5.97129119 0.00819043 11.94256201 -0.0013974 17.91385101 -0.00851054 C28.37958379 -0.01860984 38.84527928 -0.01785183 49.31101131 -0.00945991 C60.57963996 -0.00048526 71.84824175 0.00173639 83.1168729 -0.00383255 C83.83594941 -0.00418382 84.55502592 -0.00453509 85.29589263 -0.004897 C88.96851113 -0.00671993 92.64112956 -0.00864654 96.31374798 -0.01060784 C123.02583497 -0.02464591 149.73790584 -0.02399983 176.44999438 -0.0157652 C203.5016171 -0.00747096 230.55322861 -0.00575714 257.60485201 -0.01197721 C258.45994995 -0.01217075 259.31504789 -0.01236429 260.19605788 -0.0125637 C268.03320934 -0.01433847 275.87036077 -0.0161802 283.70751219 -0.01810233 C303.3551672 -0.0229133 323.00282234 -0.02668196 342.6504777 -0.02974345 C344.00059015 -0.0299545 344.00059015 -0.0299545 345.3779776 -0.03016982 C389.68870355 -0.03699734 433.99942748 -0.03240154 478.3101533 -0.02665998 C480.24990946 -0.02640907 482.18966563 -0.02615817 484.12942179 -0.02590729 C485.09077964 -0.02578293 486.05213748 -0.02565856 487.04262738 -0.02553042 C499.72141691 -0.02389075 512.40020645 -0.02228091 525.07899599 -0.02075054 C526.04823361 -0.02063305 527.01747122 -0.02051557 528.01607968 -0.02039453 C572.97661738 -0.01498544 617.93715408 -0.01627813 662.89769193 -0.0190419 C667.80586908 -0.0193413 672.71404623 -0.01962779 677.62222339 -0.01991573 C692.41686489 -0.02078754 707.21150639 -0.02167836 722.00614789 -0.02260853 C767.1184973 -0.02544181 812.23084671 -0.02724275 857.3431962 -0.02815343 C858.34756647 -0.02817404 859.35193673 -0.02819464 860.38674245 -0.02821587 C925.41024734 -0.02953165 990.43375111 -0.02623202 1055.45725565 -0.0196047 C1056.49494786 -0.01949934 1057.53264006 -0.01939399 1058.60177748 -0.01928544 C1093.35704802 -0.01575661 1128.11231853 -0.0119883 1162.86758904 -0.00819555 C1267.96056694 0.0032652 1373.05354081 0.00954654 1560.73860506 -0.00854154 C1595.48519972 -0.01233131 1630.23179439 -0.01607695 1664.97838908 -0.0196047 C1666.01579147 -0.01971043 1667.05319387 -0.01981616 1668.12203271 -0.0199251 C1733.11217146 -0.02654334 1798.10230944 -0.02948675 1863.09244852 -0.02815343 C1864.09648124 -0.02813316 1865.10051397 -0.0281129 1866.13497192 -0.02809201 C1911.2224756 -0.02717175 1956.3099792 -0.02525665 2001.3974828 -0.02242192 C2016.18550485 -0.02149332 2030.97352691 -0.02061031 2045.76154897 -0.01974278 C2050.66689225 -0.0194548 2055.57223553 -0.01916274 2060.47757881 -0.0188612 C2105.43726929 -0.0161059 2150.39695842 -0.01530089 2195.35664873 -0.02075054 C2196.32526907 -0.02086745 2197.29388941 -0.02098437 2198.29186188 -0.02110483 C2210.96331558 -0.02264008 2223.63476926 -0.02426803 2236.30622294 -0.02590729 C2237.26681717 -0.02603153 2238.22741141 -0.02615577 2239.21711456 -0.02628378 C2241.15509941 -0.02653446 2243.09308425 -0.02678535 2245.0310691 -0.02703647 C2289.28243585 -0.03275541 2333.5338002 -0.03666103 2377.78516703 -0.02974345 C2378.68405051 -0.02960338 2379.58293399 -0.02946332 2380.50905637 -0.02931901 C2400.12500835 -0.02622775 2419.74096005 -0.0222686 2439.35691168 -0.0174576 C2447.18153867 -0.01555008 2455.00616569 -0.01374822 2462.83079272 -0.01197721 C2463.68429219 -0.01178096 2464.53779167 -0.01158471 2465.41715476 -0.01138252 C2492.43094576 -0.00522007 2519.44472518 -0.00819989 2546.45851531 -0.01652752 C2573.0862298 -0.0246952 2599.71392616 -0.02364245 2626.34163865 -0.00942243 C2630.000683 -0.00746941 2633.6597274 -0.00562 2637.31877183 -0.00383255 C2638.03501063 -0.00347858 2638.75124944 -0.00312462 2639.48919245 -0.00275993 C2650.71473728 0.00251838 2661.9402541 -0.00209544 2673.16579564 -0.01109661 C2684.18918311 -0.01972733 2695.21253083 -0.01721751 2706.23591491 -0.00408619 C2712.08759674 0.0025852 2717.93917514 0.00486297 2723.79085205 -0.00653574 C2808.10988316 -0.1590216 2890.6684169 12.38941932 3053.71782236 72.38222598 C3055.08003916 73.00242617 3055.08003916 73.00242617 3056.46977549 73.63515566 C3068.63330074 79.17820738 3080.35034953 85.40662412 3092.03178721 91.89882754 C3094.55950561 93.29479346 3097.09813071 94.66740195 3099.64360361 96.03066348 C3109.35124508 101.25015277 3118.83217923 106.79296007 3128.21782236 112.56972598 C3129.2796876 113.2229584 3130.34155283 113.87619082 3131.4355958 114.54921816 C3138.63183817 119.01174272 3145.70189291 123.64185286 3152.71782236 128.38222598 C3153.42777354 128.86119326 3154.13772471 129.34016055 3154.86918955 129.83364199 C3170.56185693 140.466581 3185.95308722 151.48964588 3200.71782236 163.38222598 C3201.35961436 163.89785098 3202.00140635 164.41347598 3202.66264658 164.94472598 C3215.29845573 175.10957317 3227.71881086 185.46865137 3239.71782236 196.38222598 C3241.28013005 197.77827456 3242.84263509 199.17410231 3244.40532236 200.56972598 C3254.74474497 209.89768332 3264.8545275 219.42554731 3274.71782236 229.25722598 C3275.50664805 230.04145938 3276.29547373 230.82569277 3277.10820322 231.63369082 C3281.25977325 235.79629169 3285.24310728 240.04198281 3289.07817393 244.49746035 C3291.66750147 247.47387617 3294.38623733 250.32537309 3297.09282236 253.19472598 C3301.74421415 258.16541552 3306.16932287 263.2444379 3310.42485361 268.56191348 C3312.55269309 271.17911978 3314.7382904 273.72732722 3316.95439463 276.26918887 C3323.73474841 284.05582196 3330.01274037 292.16657806 3336.22319346 300.41152285 C3337.55654189 302.16957391 3338.9056624 303.91270743 3340.26860361 305.64785098 C3359.43740682 330.11866358 3376.06110279 356.56687324 3391.71782236 383.38222598 C3392.28291514 384.34725039 3392.84800791 385.31227481 3393.43022471 386.30654238 C3436.09586702 459.60584213 3464.80050575 540.2450859 3493.84547286 749.45140122 C3493.84671828 751.43785196 3493.84840062 753.42430246 3493.85047522 755.4107525 C3493.85490337 760.85632848 3493.85315527 766.30188734 3493.85037344 771.74746375 C3493.8484444 777.69892154 3493.85233744 783.65037609 3493.85547023 789.60183297 C3493.86017772 800.0684093 3493.86120296 810.53498159 3493.85974189 821.00155847 C3493.85818549 832.28791058 3493.85882705 843.57425947 3493.8620831 854.86061125 C3493.86239104 855.93549255 3493.86239104 855.93549255 3493.86270521 857.03208862 C3493.86376279 860.69114315 3493.86485426 864.35019767 3493.86595666 868.00925219 C3493.87392421 894.71519736 3493.8769266 921.42114133 3493.8774026 948.12708758 C3493.87789731 975.19481946 3493.88054469 1002.26254986 3493.88581019 1029.33028124 C3493.88614373 1031.05662665 3493.8864772 1032.78297205 3493.88681059 1034.50931745 C3493.88815873 1041.4700917 3493.88952203 1048.43086595 3493.8909027 1055.3916402 C3493.90606406 1131.93766892 3493.91284479 1208.48369727 3493.91732466 1285.02972726 C3493.91738135 1285.99779614 3493.91743804 1286.96586503 3493.91749645 1287.96326934 C3493.91778298 1292.86005576 3493.91806801 1297.75684217 3493.91835057 1302.65362858 C3493.92072653 1343.69510468 3493.92443639 1384.73658061 3493.92838767 1425.77805657 C3493.93028029 1445.4382993 3493.9321088 1465.09854203 3493.93392187 1484.75878476 C3493.93401205 1485.73660739 3493.93410224 1486.71443003 3493.93419517 1487.72188365 C3493.93853133 1534.78270868 3493.94245968 1581.84353374 3493.94592219 1628.90435885 C3493.94599606 1629.90823372 3493.94606993 1630.91210858 3493.94614604 1631.94640389 C3493.95084069 1695.91845901 3493.9536639 1759.89051408 3493.95530897 1823.86256934 C3493.95544455 1829.10701369 3493.95558357 1834.35145804 3493.95572251 1839.59590239 C3493.95594498 1848.00391668 3493.95616635 1856.41193097 3493.95638639 1864.81994526 C3493.95641366 1865.86183299 3493.95644093 1866.90372072 3493.95646903 1867.9771808 C3493.95652414 1870.0829136 3493.95657925 1872.18864639 3493.95663436 1874.29437919 C3493.95702097 1889.06530147 3493.95740891 1903.83622375 3493.95780349 1918.60714604 C3493.9579446 1923.89245854 3493.95808467 1929.17777104 3493.95822238 1934.46308354 C3493.96082613 2034.26730867 3493.96615299 2134.07153225 3493.98210459 2233.87575625 C3493.98227238 2234.92616358 3493.98244018 2235.97657091 3493.98261306 2237.05880876 C3493.98786371 2269.87787756 3493.99343808 2302.6969463 3493.99907236 2335.51601504 C3494.00485352 2369.19148855 3494.01058416 2402.86696207 3494.01602869 2436.54243563 C3494.0161965 2437.57937429 3494.01636431 2438.61631294 3494.0165372 2439.68467397 C3494.02703388 2504.64880181 3494.03389297 2569.61292921 3494.03689509 2634.57705783 C3494.0369419 2635.58076106 3494.03698871 2636.5844643 3494.03703694 2637.61858279 C3494.03908782 2681.70367497 3494.04033172 2725.78876714 3494.040683 2769.87385937 C3494.04082626 2787.61071712 3494.04106492 2805.34757486 3494.04134705 2823.0844326 C3494.04139259 2826.02520989 3494.04143424 2828.96598717 3494.04147517 2831.90676445 C3494.04212086 2876.86051711 3494.04507051 2921.81426799 3494.05493574 2966.76801966 C3494.0552543 2968.2209075 3494.0552543 2968.2209075 3494.05557929 2969.7031466 C3494.05900782 2985.28289785 3494.06262087 3000.86264906 3494.0662557 3016.44240026 C3494.07657593 3060.69899795 3494.08534823 3104.95559343 3494.08341103 3149.21219252 C3494.08335292 3150.56081715 3494.08335292 3150.56081715 3494.08329364 3151.93668673 C3494.08241682 3171.5577019 3494.08070427 3191.17871691 3494.07817401 3210.79973193 C3494.07717734 3218.62666969 3494.07629066 3226.45360745 3494.07543879 3234.28054522 C3494.0753429 3235.1343017 3494.07524701 3235.98805818 3494.07514822 3236.86768606 C3494.07216572 3263.8873506 3494.0783706 3290.90700241 3494.08995766 3317.92666434 C3494.10134133 3344.56220979 3494.10351862 3371.19773824 3494.09255215 3397.83328442 C3494.09104631 3401.49398042 3494.08964494 3405.15467645 3494.08830633 3408.81537251 C3494.08804028 3409.5319333 3494.08777424 3410.24849408 3494.08750013 3410.98676882 C3494.08360222 3422.21474305 3494.08961996 3433.44268788 3494.10004618 3444.67065701 C3494.11007851 3455.69828296 3494.10894835 3466.72587049 3494.09719523 3477.75349579 C3494.09125719 3483.60681414 3494.08970954 3489.46002819 3494.10188009 3495.31333929 C3494.26211941 3577.93148099 3482.51355778 3658.84610114 3391.71782236 3884.38222598 C3391.13419932 3885.38318301 3390.55057627 3886.38414004 3389.94926768 3887.4154291 C3363.73069811 3932.24481565 3332.83555052 3975.11733336 3297.5112794 4013.26259707 C3295.02555512 4015.94696259 3292.59351409 4018.66274019 3290.21782236 4021.44472598 C3286.91800304 4025.26014207 3283.34641914 4028.78491119 3279.7559083 4032.32265566 C3277.19779045 4034.85629392 3274.7680863 4037.42610933 3272.46782236 4040.19472598 C3267.8719451 4045.59182155 3262.5140156 4050.24460944 3257.31157236 4055.04238223 C3254.56994501 4057.57513043 3251.89662 4060.15670874 3249.28032236 4062.81972598 C3246.25822991 4065.8873123 3243.10370601 4068.73580846 3239.83891611 4071.54238223 C3237.49291178 4073.57731416 3235.20045786 4075.66513564 3232.90532236 4077.75722598 C3228.66341386 4081.58137076 3224.3123114 4085.23112053 3219.87016611 4088.81972598 C3217.52922356 4090.7124351 3215.21533025 4092.63472773 3212.90922861 4094.56972598 C3203.24147467 4102.65944559 3193.31097799 4110.27808706 3183.09526377 4117.66201113 C3180.73859431 4119.36719628 3178.38961606 4121.08251707 3176.04204111 4122.80019473 C3166.7569655 4129.57683017 3157.36019596 4136.12505968 3147.71782236 4142.38222598 C3146.93520029 4142.89333926 3146.15257822 4143.40445254 3145.34624033 4143.9310541 C3092.66972701 4178.25842997 3036.13879197 4205.89738012 2976.71782236 4226.38222598 C2976.06591929 4226.60718753 2975.41401621 4226.83214907 2974.7423585 4227.06392764 C2921.16318936 4245.48877692 2865.6677726 4257.59194585 2809.34282236 4263.63222598 C2808.2803126 4263.74806033 2808.2803126 4263.74806033 2807.19633799 4263.86623477 C2801.70993939 4264.45484219 2796.21697585 4264.92993454 2790.71782236 4265.38222598 C2789.71100592 4265.46560704 2788.70418948 4265.5489881 2787.66686344 4265.63489586 C2763.31608982 4267.57356992 2739.03002535 4267.66871442 2714.61494201 4267.6370433 C2708.67489454 4267.63160939 2702.73485651 4267.63796595 2696.79481005 4267.64271699 C2686.37174645 4267.64946638 2675.94869946 4267.64893235 2665.52563619 4267.6433499 C2654.29729182 4267.63737671 2643.06895942 4267.63587923 2631.84061395 4267.63959833 C2631.12534406 4267.63983251 2630.41007417 4267.64006669 2629.67312943 4267.64030796 C2626.02024735 4267.64152318 2622.3673653 4267.6428076 2618.71448325 4267.64411519 C2592.11461464 4267.65348513 2565.51475321 4267.65303788 2538.9148839 4267.64755343 C2511.96956348 4267.64202774 2485.02424806 4267.64087834 2458.07892733 4267.6450281 C2457.22780785 4267.64515713 2456.37668837 4267.64528616 2455.49977738 4267.64541909 C2447.69931758 4267.64660224 2439.89885779 4267.64783005 2432.098398 4267.64911152 C2412.54115267 4267.65231918 2392.98390727 4267.65483147 2373.42666178 4267.65687226 C2372.08263698 4267.65701296 2372.08263698 4267.65701296 2370.71146017 4267.65715651 C2326.58082403 4267.6617102 2282.45018879 4267.65864344 2238.31955271 4267.65481661 C2236.38723988 4267.65464934 2234.45492705 4267.65448208 2232.52261422 4267.65431482 C2231.56494819 4267.65423191 2230.60728216 4267.654149 2229.62059595 4267.65406358 C2216.99084897 4267.65297049 2204.36110199 4267.65189727 2191.731355 4267.65087699 C2190.7658964 4267.65079866 2189.80043779 4267.65072034 2188.80572286 4267.65063965 C2144.03802166 4267.64703498 2099.27032091 4267.6478949 2054.50261964 4267.6497379 C2049.61678287 4267.64993749 2044.7309461 4267.65012849 2039.84510932 4267.65032045 C2025.11811978 4267.65090164 2010.39113024 4267.65149553 1995.6641407 4267.65211565 C1950.75700866 4267.65400458 1905.84987662 4267.65520515 1860.94274454 4267.65581225 C1859.44298879 4267.65583286 1859.44298879 4267.65583286 1857.91293495 4267.65585388 C1793.17431068 4267.65673118 1728.4356869 4267.65453072 1663.69706278 4267.65011309 C1662.14713632 4267.65000774 1662.14713632 4267.65000774 1660.56589822 4267.64990025 C1625.95734987 4267.64754764 1591.34880154 4267.64503547 1556.74025321 4267.64250699 C1452.08784325 4267.63486636 1347.43543509 4267.6306789 1160.53818878 4267.64273766 C1125.93831984 4267.64526413 1091.3384509 4267.6477612 1056.73858195 4267.65011309 C1055.70558711 4267.65018358 1054.67259227 4267.65025407 1053.60829455 4267.6503267 C988.90316303 4267.65473825 924.19803185 4267.65670124 859.49290018 4267.65581225 C858.49339741 4267.65579874 857.49389464 4267.65578523 856.4641039 4267.6557713 C811.58178343 4267.65515782 766.69946299 4267.65388114 721.81714256 4267.65199124 C707.0967056 4267.65137217 692.37626864 4267.65078349 677.65583168 4267.65020515 C672.77281475 4267.65001316 667.88979781 4267.64981845 663.00678088 4267.64961743 C618.2392836 4267.64778006 573.47178693 4267.64724526 528.70428973 4267.65087699 C527.7394449 4267.65095493 526.77460007 4267.65103287 525.78051752 4267.65111318 C513.15802185 4267.65213671 500.53552618 4267.65322201 487.91303051 4267.65431482 C486.95612322 4267.65439765 485.99921593 4267.65448048 485.01331145 4267.65456581 C483.08275936 4267.65473293 481.15220727 4267.6549002 479.22165518 4267.65506761 C435.15076409 4267.6588793 391.07987407 4267.66148598 347.00898295 4267.65687226 C346.11415009 4267.65677888 345.21931722 4267.65668551 344.29736821 4267.6565893 C324.77186282 4267.65452867 305.24635755 4267.65188935 285.72085232 4267.64868169 C277.93280735 4267.64740997 270.14476238 4267.64620875 262.3567174 4267.6450281 C261.08243549 4267.64483185 261.08243549 4267.64483185 259.78241052 4267.64463164 C232.87357271 4267.64052016 205.96474006 4267.64251349 179.05590263 4267.64806164 C152.54174631 4267.65350117 126.02759807 4267.6528159 99.51344264 4267.64332491 C95.87397204 4267.64202281 92.23450141 4267.64078989 88.59503078 4267.63959833 C87.52637519 4267.63924436 87.52637519 4267.63924436 86.4361306 4267.63888325 C75.24832828 4267.63535772 64.06053842 4267.63844901 52.87273757 4267.64444104 C41.89951984 4267.65017988 30.92631987 4267.64854416 19.95310367 4267.63976742 C14.12265 4267.63530486 8.29224261 4267.63383723 2.46179108 4267.64140046 C-21.86974868 4267.67079013 -46.02184651 4267.37809483 -70.28217764 4265.38222598 C-71.71607859 4265.26645429 -71.71607859 4265.26645429 -73.17894724 4265.14834379 C-78.32541568 4264.72804359 -83.4608929 4264.24894096 -88.59467764 4263.69472598 C-89.35879964 4263.61330355 -90.12292165 4263.53188113 -90.91019888 4263.44799136 C-137.47085957 4258.41780081 -183.45179889 4248.87709737 -228.28217764 4235.38222598 C-229.02922964 4235.15748599 -229.77628164 4234.932746 -230.54597158 4234.7011957 C-264.71061004 4224.37626481 -297.9413718 4211.47893084 -330.28217764 4196.38222598 C-330.895147 4196.09647708 -331.50811636 4195.81072817 -332.13966055 4195.51632022 C-349.11368843 4187.59216695 -365.68367641 4179.22606267 -381.87202139 4169.77675723 C-384.6704327 4168.15757921 -387.49854491 4166.59887585 -390.33369131 4165.04531191 C-426.2643823 4145.2683154 -459.75563283 4120.83015867 -491.44428701 4094.88369082 C-493.08873326 4093.54026037 -494.73971715 4092.20484167 -496.39155264 4090.87050723 C-501.72379649 4086.55500478 -506.88998602 4082.10644358 -511.96186514 4077.48769473 C-513.98371948 4075.65304912 -516.02896286 4073.85453812 -518.09467764 4072.06972598 C-529.44482198 4062.14412991 -540.1880835 4051.63596981 -550.83198232 4040.96279238 C-553.17101244 4038.61835921 -555.51539961 4036.27937726 -557.86030264 4033.94081973 C-559.3736445 4032.42681763 -560.88667644 4030.91250568 -562.39936514 4029.39785098 C-563.08803671 4028.71120364 -563.77670828 4028.0245563 -564.48624868 4027.31710147 C-568.4069079 4023.37766704 -572.15239201 4019.33647105 -575.77857656 4015.12394045 C-577.85136544 4012.7229004 -580.00492942 4010.39951655 -582.15717764 4008.06972598 C-586.60906419 4003.18334599 -590.81520893 3998.14687055 -594.9628417 3993.00185488 C-596.43682627 3991.1923779 -597.93208018 3989.40188993 -599.43061514 3987.61269473 C-607.80130279 3977.59586355 -615.75495987 3967.32094666 -623.49457998 3956.80947207 C-624.63733694 3955.25780727 -625.78319745 3953.70842027 -626.93305654 3952.16201113 C-641.16342696 3933.02039015 -654.12645925 3912.89784039 -666.28217764 3892.38222598 C-666.81955557 3891.48262149 -667.35693349 3890.58301699 -667.9105956 3889.65615176 C-710.48430835 3818.1671463 -740.70598911 3739.69984879 -773.40982813 3514.22847508 C-773.41107382 3512.24506748 -773.41275633 3510.26166012 -773.41483049 3508.27825322 C-773.41925486 3502.84580874 -773.41751201 3497.41338145 -773.41472871 3491.98093653 C-773.41279844 3486.04201556 -773.4166935 3480.10309783 -773.4198255 3474.16417776 C-773.42453145 3463.72125687 -773.42555865 3453.27833963 -773.42409716 3442.83541803 C-773.42254042 3431.5753228 -773.42318308 3420.31523079 -773.42643837 3409.05513589 C-773.42664367 3408.34005186 -773.42684896 3407.62496783 -773.42706048 3406.88821458 C-773.42811807 3403.23679807 -773.42920954 3399.58538158 -773.43031193 3395.93396508 C-773.43827822 3369.28793323 -773.44128181 3342.64190257 -773.44175787 3315.99586962 C-773.44225263 3288.98983411 -773.44490047 3261.98380009 -773.45016546 3234.97776507 C-773.450499 3233.25518879 -773.45083247 3231.53261252 -773.45116586 3229.81003624 C-773.452514 3222.86442974 -773.4538773 3215.91882325 -773.45525797 3208.97321676 C-773.47041825 3132.59915057 -773.47719988 3056.22508475 -773.48167993 2979.85101729 C-773.48173662 2978.88516037 -773.48179331 2977.91930346 -773.48185172 2976.92417814 C-773.48213825 2972.03857166 -773.48242328 2967.15296517 -773.48270584 2962.26735868 C-773.48508192 2921.31748978 -773.4887918 2880.36762104 -773.49274294 2839.41775226 C-773.49463557 2819.80065043 -773.49646408 2800.1835486 -773.49827714 2780.56644677 C-773.49836733 2779.59076655 -773.49845752 2778.61508633 -773.49855044 2777.60984004 C-773.50288658 2730.65234386 -773.50681493 2683.69484766 -773.51027746 2636.7373514 C-773.51035133 2635.73568561 -773.5104252 2634.73401981 -773.51050131 2633.70200051 C-773.51519588 2569.87181433 -773.51801915 2506.0416282 -773.51966424 2442.21144187 C-773.51979982 2436.9787231 -773.51993885 2431.74600434 -773.52007778 2426.51328558 C-773.52030025 2418.12408265 -773.52052162 2409.73487973 -773.52074166 2401.34567681 C-773.52076893 2400.3061212 -773.5207962 2399.26656558 -773.5208243 2398.19550828 C-773.52087941 2396.09448958 -773.52093452 2393.99347088 -773.52098963 2391.89245219 C-773.52137624 2377.15462052 -773.52176418 2362.41678885 -773.52215876 2347.67895718 C-773.52229987 2342.40548862 -773.52243994 2337.13202007 -773.52257766 2331.85855151 C-773.52518139 2232.27826665 -773.53050824 2132.69798334 -773.54645986 2033.11769961 C-773.54662766 2032.06965004 -773.54679545 2031.02160048 -773.54696833 2029.94179184 C-773.55221898 1997.19635057 -773.55779335 1964.45090936 -773.56342764 1931.70546816 C-773.5692088 1898.10545445 -773.57493945 1864.50544073 -773.58038396 1830.90542697 C-773.58055177 1829.87080825 -773.58071958 1828.83618953 -773.58089247 1827.77021873 C-773.59138935 1762.95019121 -773.5982483 1698.13016413 -773.60125036 1633.31013583 C-773.60129717 1632.30864114 -773.60134398 1631.30714646 -773.60139221 1630.27530345 C-773.6034431 1586.28697929 -773.604687 1542.29865513 -773.60503827 1498.31033092 C-773.60518153 1480.61235639 -773.60542019 1462.91438186 -773.60570232 1445.21640732 C-773.60574786 1442.28208389 -773.60578951 1439.34776046 -773.60583044 1436.41343703 C-773.60647611 1391.5600638 -773.60942526 1346.70669235 -773.61929102 1301.85332011 C-773.61950339 1300.88694162 -773.61971576 1299.92056313 -773.61993456 1298.92490044 C-773.62336308 1283.38083565 -773.62697613 1267.83677092 -773.63061097 1252.29270618 C-773.64093156 1208.13611555 -773.64970339 1163.97952713 -773.6477663 1119.82293509 C-773.64772756 1118.92582995 -773.64768882 1118.0287248 -773.64764891 1117.10443465 C-773.64677208 1097.52629785 -773.6450595 1077.94816121 -773.64252928 1058.37002455 C-773.64153262 1050.5601205 -773.64064593 1042.75021644 -773.63979406 1034.94031237 C-773.63965023 1033.6624672 -773.63965023 1033.6624672 -773.63950349 1032.35880698 C-773.63652131 1005.4009196 -773.64272482 978.44304497 -773.65431293 951.48516019 C-773.66569823 924.90910321 -773.66787212 898.33306325 -773.65690742 871.75700554 C-773.6554016 868.10393181 -773.65400022 864.45085805 -773.6526616 860.79778426 C-773.65239555 860.08271963 -773.65212951 859.367655 -773.6518554 858.63092175 C-773.64795852 847.42943638 -773.65397311 836.22798049 -773.66440146 825.02650024 C-773.67443742 814.02306276 -773.67329943 803.0196638 -773.6615505 792.01622697 C-773.65561524 786.17650284 -773.65405676 780.33688322 -773.66623537 774.49716637 C-773.83076524 689.91558913 -761.5901764 607.75372098 -672.86030264 386.09853457 C-671.31990098 383.44715635 -669.79987929 380.78492783 -668.28217764 378.12050723 C-652.50103894 350.66345848 -634.25375032 324.37491016 -614.83295889 299.37831973 C-613.36369838 297.4871557 -611.90075814 295.59124986 -610.43842764 293.69472598 C-605.3378603 287.11100205 -600.06928443 280.70617371 -594.61298818 274.41396426 C-591.6738673 271.02307289 -588.82439478 267.5838852 -586.03217764 264.06972598 C-580.183487 256.8672697 -573.70651316 250.24188251 -567.31342764 243.52675723 C-564.79810309 240.87115496 -562.31232854 238.18915394 -559.82832021 235.50429629 C-550.95878939 225.92655198 -542.00010539 216.38113532 -532.03999014 207.92128848 C-530.20290739 206.31282048 -528.49309977 204.62383729 -526.78217764 202.88222598 C-523.11911323 199.17010268 -519.23363128 195.78260526 -515.28217764 192.38222598 C-514.1995285 191.43631813 -513.1175532 190.48963875 -512.03608389 189.54238223 C-497.05548441 176.44374721 -481.71894711 163.95759735 -465.6918456 152.15664004 C-464.16762981 151.03424892 -462.64553732 149.90896358 -461.12641592 148.77968691 C-438.45880469 131.93351817 -414.71631126 116.52830334 -390.28217764 102.38222598 C-389.32730459 101.82438418 -388.37243154 101.26654238 -387.38862295 100.69179629 C-311.05516842 56.24807251 -225.9391371 25.9210269 0 0 Z " fill="#003352" transform="translate(773.2821776354685,-0.3822259772568941)"/>
<path d="M0 0 C171.27 0 342.54 0 519 0 C519 276.21 519 552.42 519 837 C528.77479618 831.50167715 538.49859345 825.99216892 548.125 820.25 C549.29544613 819.55382325 550.46602191 818.85786445 551.63671875 818.16210938 C553.98637736 816.76560276 556.33561288 815.36838876 558.68457031 813.97070312 C563.45078751 811.13764678 568.22498182 808.31818834 573 805.5 C581.17134828 800.67455469 589.3367883 795.83919537 597.5 791 C610.20854364 783.46650078 622.92647633 775.94898982 635.64746094 768.43652344 C646.60330317 761.96609401 657.55467994 755.48821513 668.5 749 C682.29228926 740.82414591 696.09524961 732.66644683 709.90234375 724.515625 C710.88098389 723.93772217 711.85962402 723.35981934 712.86791992 722.7644043 C714.71816236 721.67181302 716.56857114 720.57950334 718.41918945 719.48754883 C719.26570068 718.98763428 720.11221191 718.48771973 720.984375 717.97265625 C721.80615234 717.48812988 722.62792969 717.00360352 723.47460938 716.50439453 C725.25393689 715.44443551 727.02540638 714.37122999 728.79101562 713.28857422 C729.69013672 712.73830566 730.58925781 712.18803711 731.515625 711.62109375 C732.32805664 711.11892334 733.14048828 710.61675293 733.97753906 710.09936523 C736 709 736 709 738 709 C737.86424561 708.45811035 737.72849121 707.9162207 737.58862305 707.35791016 C730.97833186 680.78806435 727.59809833 655.021072 727.6875 627.625 C727.68923721 625.97639984 727.68923721 625.97639984 727.69100952 624.29449463 C727.72630627 607.34188243 728.34903759 590.77049315 731 574 C731.11214844 573.24428711 731.22429688 572.48857422 731.33984375 571.70996094 C732.0376961 567.09422767 732.95790959 562.54786921 734 558 C734.18900879 557.15147461 734.37801758 556.30294922 734.57275391 555.42871094 C746.80938516 501.18812377 772.61701134 451.15316364 810 410 C810.85875732 409.04867187 810.85875732 409.04867187 811.73486328 408.078125 C819.4254169 399.58731229 827.31619776 391.4875253 836 384 C836.61149902 383.47083984 837.22299805 382.94167969 837.85302734 382.39648438 C856.29893348 366.55045948 876.36710831 353.75140692 897.24681091 341.41346741 C903.25137632 337.86187093 909.21166699 334.23986082 915.16622925 330.60525513 C926.56071895 323.65191599 938.02337883 316.81895771 949.512146 310.0227356 C957.55872235 305.26049804 965.5713573 300.45719604 973.5 295.5 C982.11007201 290.11675643 990.82342076 284.91984609 999.5625 279.75 C1009.82453505 273.67822045 1020.06351279 267.57280572 1030.25 261.375 C1030.82110504 261.0276178 1031.39221008 260.6802356 1031.98062134 260.32232666 C1035.98849531 257.88387037 1039.99449236 255.44234082 1044 253 C1048.58200256 250.20614391 1053.1649221 247.41380678 1057.75 244.625 C1058.31809387 244.2794104 1058.88618774 243.9338208 1059.47149658 243.57775879 C1070.50412616 236.87072513 1081.59936902 230.27057315 1092.71875 223.70849609 C1098.47930492 220.30533127 1104.22336871 216.89042048 1109.8828125 213.3203125 C1110.72376465 212.79163574 1111.5647168 212.26295898 1112.43115234 211.71826172 C1113.92036816 210.77531121 1115.40312109 209.82203105 1116.87744141 208.85595703 C1121.39551198 205.99524025 1121.39551198 205.99524025 1123.95336914 206.01538086 C1127.08366772 207.52134462 1128.30480983 210.19125031 1129.94921875 213.11328125 C1130.31889267 213.74576279 1130.68856659 214.37824432 1131.06944275 215.02989197 C1131.86812342 216.39963311 1132.66102627 217.77275592 1133.4487915 219.14880371 C1134.70204376 221.3379041 1135.96959023 223.51809874 1137.24169922 225.69628906 C1138.55084632 227.93797046 1139.8592149 230.18005447 1141.16314697 232.42477417 C1145.2287997 239.42115852 1149.40939594 246.34322645 1153.625 253.25 C1155.00527665 255.51558338 1156.3854848 257.7812085 1157.765625 260.046875 C1158.45205078 261.17287109 1159.13847656 262.29886719 1159.84570312 263.45898438 C1162.15040664 267.24357806 1164.44259328 271.03569749 1166.734375 274.828125 C1167.9034087 276.76078345 1169.07261673 278.69333633 1170.24188232 280.62585449 C1170.98936409 281.86216881 1171.73616475 283.09889521 1172.48223877 284.33605957 C1173.51488048 286.04811866 1174.55034923 287.75847162 1175.5859375 289.46875 C1176.1742334 290.44263672 1176.7625293 291.41652344 1177.36865234 292.41992188 C1178.81582733 294.70871943 1180.33850565 296.8637029 1182 299 C1201.78431495 287.52617998 1201.78431495 287.52617998 1221.3125 275.625 C1229.98404294 270.19774182 1238.75809308 264.95752809 1247.5625 259.75 C1257.24816828 254.0195303 1266.9177184 248.26599076 1276.53344727 242.41876221 C1278.2371686 241.38280223 1279.94182318 240.34837757 1281.64648438 239.31396484 C1287.06973262 236.01838256 1292.48182067 232.70695188 1297.87313843 229.35946655 C1300.47243324 227.74714885 1303.07635232 226.14239083 1305.68078613 224.53839111 C1306.9267234 223.76807615 1308.17033892 222.9939921 1309.41149902 222.21600342 C1311.12410369 221.14266942 1312.84506565 220.08270478 1314.56640625 219.0234375 C1315.54552979 218.41419434 1316.52465332 217.80495117 1317.53344727 217.17724609 C1320 216 1320 216 1323 217 C1324.69482422 219.44238281 1324.69482422 219.44238281 1326.5546875 222.703125 C1326.89213989 223.28784073 1327.22959229 223.87255646 1327.57727051 224.47499084 C1328.30411096 225.73613789 1329.02697065 226.99958576 1329.74627686 228.26504517 C1331.65607334 231.62358334 1333.59544319 234.96500328 1335.53125 238.30859375 C1335.91727386 238.97710861 1336.30329773 239.64562347 1336.70101929 240.33439636 C1339.82153192 245.72700396 1343.06042648 251.03686666 1346.375 256.3125 C1351.80371091 264.98309432 1357.0424992 273.75813922 1362.25 282.5625 C1368.32156665 292.82469204 1374.42880114 303.06252249 1380.625 313.25 C1381.3058667 314.37083984 1381.9867334 315.49167969 1382.68823242 316.64648438 C1385.9831084 322.06408449 1389.28897029 327.47447141 1392.61474609 332.87313843 C1394.21552411 335.47356531 1395.81137655 338.07699637 1397.40667725 340.68078613 C1398.17147222 341.92589512 1398.93873081 343.16949452 1399.70855713 344.41149902 C1400.77127062 346.12613998 1401.82530586 347.84615052 1402.87890625 349.56640625 C1403.78491577 351.03509155 1403.78491577 351.03509155 1404.70922852 352.53344727 C1406 355 1406 355 1406 358 C1404.42480469 359.26416016 1404.42480469 359.26416016 1402.171875 360.5390625 C1401.32391357 361.02810059 1400.47595215 361.51713867 1399.60229492 362.02099609 C1398.6610376 362.55031738 1397.71978027 363.07963867 1396.75 363.625 C1394.71896784 364.79499483 1392.68907313 365.96696583 1390.66015625 367.140625 C1389.57621582 367.76517578 1388.49227539 368.38972656 1387.37548828 369.03320312 C1382.19278775 372.05300896 1377.07206096 375.17260174 1371.95251465 378.29769897 C1368.98460454 380.10920383 1366.01380868 381.91596154 1363.04296875 383.72265625 C1362.16090256 384.25920586 1362.16090256 384.25920586 1361.26101685 384.80659485 C1350.34968019 391.43929112 1339.38430485 397.9827836 1328.42724609 404.53955078 C1317.21293539 411.25112887 1306.028133 418.01005608 1294.8600769 424.79824829 C1285.92483923 430.22928168 1276.97833961 435.64048095 1268 441 C1269.5266746 445.19330564 1271.60903205 448.93576575 1273.89453125 452.75 C1274.27828918 453.39645981 1274.66204712 454.04291962 1275.05743408 454.70896912 C1276.30534288 456.80825655 1277.55870506 458.90422361 1278.8125 461 C1279.67840964 462.45314346 1280.544213 463.90635025 1281.40991211 465.35961914 C1286.72361773 474.26541588 1292.11655257 483.11812995 1297.609375 491.91479492 C1302.55986346 499.85378627 1307.30253513 507.90933251 1312 516 C1315.70978253 514.61621551 1319.00969326 512.92642183 1322.41015625 510.90234375 C1323.4674292 510.27481201 1324.52470215 509.64728027 1325.61401367 509.00073242 C1326.76359532 508.31313238 1327.91308816 507.62538386 1329.0625 506.9375 C1330.27113521 506.21767844 1331.47987755 505.49803673 1332.6887207 504.77856445 C1341.62764535 499.45061048 1350.52435472 494.05389406 1359.40997314 488.63754272 C1369.04206629 482.76687012 1378.72866124 476.99272292 1388.4375 471.25 C1398.14217739 465.50878714 1407.79651027 459.70369041 1417.36450195 453.73632812 C1424.41401131 449.3451316 1431.51018127 445.03421374 1438.625 440.75 C1439.71159912 440.09290039 1440.79819824 439.43580078 1441.91772461 438.75878906 C1442.92714111 438.15260742 1443.93655762 437.54642578 1444.9765625 436.921875 C1446.32355225 436.11121582 1446.32355225 436.11121582 1447.69775391 435.28417969 C1450 434 1450 434 1453 433 C1453.52319824 433.88558594 1454.04639648 434.77117187 1454.58544922 435.68359375 C1458.77558526 442.77293537 1462.97233602 449.85836099 1467.1796875 456.9375 C1467.58557098 457.62191162 1467.99145447 458.30632324 1468.40963745 459.01147461 C1471.58770295 464.35362018 1474.86518802 469.6291377 1478.19090271 474.88043213 C1482.63993279 481.90669959 1486.82808114 489.09334714 1491.0625 496.25 C1499.2259626 510.04474931 1507.49832164 523.76770329 1515.84130859 537.45458984 C1518.15614403 541.25419817 1520.4632005 545.05850647 1522.76953125 548.86328125 C1523.55842861 550.16438946 1524.34732832 551.46549625 1525.13623047 552.76660156 C1526.27697963 554.64807278 1527.41758612 556.52962957 1528.55767822 558.41149902 C1529.59904065 560.13017083 1530.64129662 561.84830114 1531.68359375 563.56640625 C1532.27712646 564.54552979 1532.87065918 565.52465332 1533.48217773 566.53344727 C1534.61780274 568.3789064 1535.79803192 570.19704788 1537 572 C1536.98144531 573.95922852 1536.98144531 573.95922852 1536 576 C1533.55761719 577.80834961 1533.55761719 577.80834961 1530.296875 579.65234375 C1529.71161545 579.98869843 1529.1263559 580.3250531 1528.52336121 580.67160034 C1527.26262267 581.3944897 1525.99858237 582.11164476 1524.73165894 582.82363892 C1522.05990785 584.32539056 1519.40417006 585.8544074 1516.74766541 587.38291931 C1515.40586131 588.15495569 1514.06329773 588.92567352 1512.71998596 589.69508362 C1507.05028034 592.94830782 1501.47657468 596.34142493 1495.9375 599.8125 C1486.83801874 605.49627587 1477.66067749 611.03879432 1468.44873047 616.53808594 C1456.22934412 623.83316923 1444.04024874 631.17754437 1431.875 638.5625 C1431.27657288 638.92555237 1430.67814575 639.28860474 1430.06158447 639.66265869 C1424.12266987 643.26597491 1418.18843431 646.87602216 1412.28125 650.53125 C1411.02078857 651.30940063 1411.02078857 651.30940063 1409.73486328 652.10327148 C1408.20477635 653.04940531 1406.67695594 653.99921832 1405.15185547 654.95336914 C1400.22173265 658 1400.22173265 658 1398 658 C1406.14529393 672.00720368 1414.29149028 686.00099905 1422.89208984 699.73510742 C1428.82207673 709.24378736 1434.50623424 718.89839991 1440.20263672 728.5480957 C1445.04966718 736.75326292 1449.97382223 744.90308129 1455 753 C1452.86259582 755.29409437 1450.73081509 756.90307658 1448.03515625 758.49609375 C1447.24625 758.9655542 1446.45734375 759.43501465 1445.64453125 759.91870117 C1444.79246094 760.41990479 1443.94039062 760.9211084 1443.0625 761.4375 C1441.23041906 762.52595803 1439.39838913 763.61450193 1437.56640625 764.703125 C1436.63328613 765.25548828 1435.70016602 765.80785156 1434.73876953 766.37695312 C1430.65066751 768.79964008 1426.5746191 771.24222488 1422.5 773.6875 C1421.69336914 774.17105957 1420.88673828 774.65461914 1420.05566406 775.15283203 C1412.79167595 779.51261914 1405.55151812 783.9114389 1398.3125 788.3125 C1384.38541377 796.77951388 1370.41326455 805.17023664 1356.42724609 813.53955078 C1345.4326403 820.11963914 1334.4673517 826.74663178 1323.51879883 833.40301514 C1311.91465053 840.45684988 1300.2764664 847.45277785 1288.625 854.42822266 C1284.5605371 856.86191054 1280.4987744 859.30009065 1276.43701172 861.73828125 C1273.17028555 863.69886156 1269.90221292 865.65716316 1266.6328125 867.61328125 C1257.24677496 873.23250273 1247.88162416 878.88525605 1238.53302002 884.5664978 C1236.68842478 885.68693827 1234.84310198 886.80617091 1232.99755859 887.92504883 C1225.8942983 892.22917067 1225.8942983 892.22917067 1218.828125 896.59375 C1169.53073264 927.03545772 1113.04683143 944.8150186 1055 946 C1053.9994458 946.02046387 1052.9988916 946.04092773 1051.96801758 946.06201172 C1042.27980981 946.16364845 1032.70938339 945.54813856 1023.0625 944.75 C1022.2528479 944.68408661 1021.4431958 944.61817322 1020.60900879 944.55026245 C1007.24059268 943.44588212 994.13925996 941.74724956 981 939 C979.66423197 938.74650119 978.32830425 938.49384183 976.9921875 938.2421875 C919.6264929 926.30548741 867.86694875 895.80675864 825.42578125 856.1796875 C823.00526148 853.89985869 823.00526148 853.89985869 820 852 C809.92278669 857.91272318 799.86255111 863.85372497 789.8125 869.8125 C777.00008542 877.40899863 764.17812471 884.98923731 751.35253906 892.56347656 C740.39669683 899.03390599 729.44532006 905.51178487 718.5 912 C705.79142444 919.5334455 693.07352377 927.05101012 680.35253906 934.56347656 C669.39669683 941.03390599 658.44532006 947.51178487 647.5 954 C636.56937371 960.47950489 625.63262338 966.94855379 614.69140625 973.41015625 C611.90848292 975.05406016 609.12605213 976.69879497 606.34375 978.34375 C604.4583455 979.45835392 602.57292892 980.5729374 600.6875 981.6875 C599.77178223 982.22882568 598.85606445 982.77015137 597.91259766 983.32788086 C592.30096882 986.64393502 586.68351058 989.94988106 581.0625 993.25 C575.8583764 996.30611899 570.67086565 999.38794906 565.5 1002.5 C559.74385419 1005.96424231 553.96279385 1009.38360175 548.16870117 1012.78393555 C541.3723575 1016.77500875 534.59180347 1020.79256873 527.8125 1024.8125 C515.00017908 1032.40915632 502.17812442 1039.98923748 489.35253906 1047.56347656 C478.39669683 1054.03390599 467.44532006 1060.51178487 456.5 1067 C443.79142444 1074.5334455 431.07352377 1082.05101012 418.35253906 1089.56347656 C407.39669683 1096.03390599 396.44532006 1102.51178487 385.5 1109 C372.79142444 1116.5334455 360.07352377 1124.05101012 347.35253906 1131.56347656 C336.39669683 1138.03390599 325.44532006 1144.51178487 314.5 1151 C303.56937371 1157.47950489 292.63262338 1163.94855379 281.69140625 1170.41015625 C278.90848292 1172.05406016 276.12605213 1173.69879497 273.34375 1175.34375 C271.4583455 1176.45835392 269.57292892 1177.5729374 267.6875 1178.6875 C266.31392334 1179.49948853 266.31392334 1179.49948853 264.91259766 1180.32788086 C259.30096882 1183.64393502 253.68351058 1186.94988106 248.0625 1190.25 C242.8583764 1193.30611899 237.67086565 1196.38794906 232.5 1199.5 C226.74385419 1202.96424231 220.96279385 1206.38360175 215.16870117 1209.78393555 C208.3723575 1213.77500875 201.59180347 1217.79256873 194.8125 1221.8125 C182.00017908 1229.40915632 169.17812442 1236.98923748 156.35253906 1244.56347656 C145.39669683 1251.03390599 134.44532006 1257.51178487 123.5 1264 C110.79142444 1271.5334455 98.07352377 1279.05101012 85.35253906 1286.56347656 C74.39669683 1293.03390599 63.44532006 1299.51178487 52.5 1306 C39.79142444 1313.5334455 27.07352377 1321.05101012 14.35253906 1328.56347656 C3.39669683 1335.03390599 -7.55467994 1341.51178487 -18.5 1348 C-29.43062629 1354.47950489 -40.36737662 1360.94855379 -51.30859375 1367.41015625 C-54.09151708 1369.05406016 -56.87394787 1370.69879497 -59.65625 1372.34375 C-61.5416545 1373.45835392 -63.42707108 1374.5729374 -65.3125 1375.6875 C-66.22821777 1376.22882568 -67.14393555 1376.77015137 -68.08740234 1377.32788086 C-73.69903118 1380.64393502 -79.31648942 1383.94988106 -84.9375 1387.25 C-90.1416236 1390.30611899 -95.32913435 1393.38794906 -100.5 1396.5 C-106.25614581 1399.96424231 -112.03720615 1403.38360175 -117.83129883 1406.78393555 C-124.6276425 1410.77500875 -131.40819653 1414.79256873 -138.1875 1418.8125 C-150.99982092 1426.40915632 -163.82187558 1433.98923748 -176.64746094 1441.56347656 C-187.60330317 1448.03390599 -198.55467994 1454.51178487 -209.5 1461 C-222.20857556 1468.5334455 -234.92647623 1476.05101012 -247.64746094 1483.56347656 C-258.60330317 1490.03390599 -269.55467994 1496.51178487 -280.5 1503 C-293.20857556 1510.5334455 -305.92647623 1518.05101012 -318.64746094 1525.56347656 C-329.60330317 1532.03390599 -340.55467994 1538.51178487 -351.5 1545 C-362.43062629 1551.47950489 -373.36737662 1557.94855379 -384.30859375 1564.41015625 C-387.09151708 1566.05406016 -389.87394787 1567.69879497 -392.65625 1569.34375 C-394.5416545 1570.45835392 -396.42707108 1571.5729374 -398.3125 1572.6875 C-399.22821777 1573.22882568 -400.14393555 1573.77015137 -401.08740234 1574.32788086 C-405.26650707 1576.7974201 -409.44699668 1579.26450653 -413.6328125 1581.72265625 C-414.35452637 1582.14659668 -415.07624023 1582.57053711 -415.81982422 1583.00732422 C-417.2113965 1583.82391436 -418.60363007 1584.63937885 -419.99658203 1585.45361328 C-423.41450602 1587.45642582 -426.80768411 1589.49003322 -430.171875 1591.58203125 C-431.18519897 1592.20706543 -431.18519897 1592.20706543 -432.21899414 1592.84472656 C-433.48636491 1593.62875799 -434.74901187 1594.42050435 -436.00561523 1595.22167969 C-439.71742949 1597.51023777 -442.66607417 1598.61893234 -447 1599 C-449.86186218 1598.31678772 -449.86186218 1598.31678772 -452.8737793 1597.16430664 C-454.01753021 1596.73475677 -455.16128113 1596.30520691 -456.33969116 1595.86264038 C-457.58462873 1595.37872343 -458.82946842 1594.89455461 -460.07421875 1594.41015625 C-461.38189017 1593.91332347 -462.69005847 1593.41779676 -463.99868774 1592.92349243 C-466.78346996 1591.8685969 -469.5646981 1590.80499348 -472.34341431 1589.73422241 C-476.72065244 1588.04751993 -481.10509337 1586.38016108 -485.4909668 1584.71606445 C-490.61916389 1582.76902648 -495.74577124 1580.81793049 -500.87002659 1578.86054134 C-510.82915941 1575.0567413 -520.81117293 1571.31695446 -530.80859375 1567.6149292 C-534.17325332 1566.36868305 -537.5364118 1565.11841251 -540.89959717 1563.86819458 C-543.45669906 1562.91764227 -546.01398677 1561.96759114 -548.57128906 1561.01757812 C-558.94532101 1557.16282485 -569.31647675 1553.30033916 -579.6875 1549.4375 C-580.76979889 1549.03440613 -581.85209778 1548.63131226 -582.9671936 1548.21600342 C-597.1514518 1542.93250232 -611.32955781 1537.63293923 -625.5 1532.3125 C-643.44783663 1525.57380554 -661.41391673 1518.88476392 -679.38357544 1512.20451355 C-691.84603594 1507.57097573 -704.30451446 1502.92674535 -716.76348877 1498.28384399 C-727.87617355 1494.14273647 -738.98919945 1490.00257105 -750.10546875 1485.87109375 C-769.94333006 1478.49746813 -789.76934195 1471.0932659 -809.58309937 1463.65509033 C-823.08040589 1458.58846875 -836.58540916 1453.54362227 -850.10351562 1448.53277588 C-861.57933935 1444.27838111 -873.04209075 1439.98989401 -884.5 1435.6875 C-898.42949252 1430.4575447 -912.36667378 1425.24874881 -926.3125 1420.0625 C-927.20297028 1419.73133179 -928.09344055 1419.40016357 -929.01089478 1419.05895996 C-935.34031943 1416.70522772 -941.67011598 1414.35249652 -948 1412 C-955.22942345 1409.31319034 -962.45868076 1406.62593491 -969.6875 1403.9375 C-970.57893707 1403.60597931 -971.47037415 1403.27445862 -972.38882446 1402.93289185 C-985.26702417 1398.14264757 -998.136524 1393.32963179 -1011 1388.5 C-1024.59624521 1383.39526229 -1038.20015025 1378.31164145 -1051.8125 1373.25 C-1052.68814606 1372.92439087 -1053.56379211 1372.59878174 -1054.4659729 1372.26330566 C-1058.08856292 1370.91630885 -1061.71118541 1369.5693994 -1065.33384705 1368.22259521 C-1074.74461709 1364.72371721 -1084.15412427 1361.22145253 -1093.56274414 1357.71679688 C-1097.9413832 1356.08585093 -1102.32083773 1354.45712313 -1106.70092773 1352.83007812 C-1116.20761528 1349.29608999 -1125.70561186 1345.74496685 -1135.16796875 1342.09375 C-1137.38602736 1341.24267254 -1139.60433417 1340.39224462 -1141.82266235 1339.54187012 C-1143.81155571 1338.77447923 -1145.79478231 1337.99363692 -1147.77807617 1337.21191406 C-1149.52374878 1336.54240723 -1149.52374878 1336.54240723 -1151.3046875 1335.859375 C-1152.29452637 1335.47233398 -1153.28436523 1335.08529297 -1154.30419922 1334.68652344 C-1159.87294647 1333.26836393 -1164.33166162 1335.95240994 -1169.23098755 1338.43174744 C-1169.94872624 1338.78898236 -1170.66646494 1339.14621729 -1171.40595329 1339.51427752 C-1173.80884164 1340.71208236 -1176.20734568 1341.91841192 -1178.60595703 1343.12475586 C-1180.32928435 1343.98602402 -1182.05287296 1344.8467695 -1183.77670288 1345.70703125 C-1188.46209461 1348.0471575 -1193.14371165 1350.39474537 -1197.82464838 1352.7437675 C-1202.7384758 1355.20821017 -1207.6555534 1357.66615141 -1212.57223511 1360.12489319 C-1220.84460386 1364.26292536 -1229.11470458 1368.40546047 -1237.38330078 1372.55102539 C-1247.94390633 1377.84569023 -1258.50814857 1383.13305481 -1269.07361031 1388.4180212 C-1278.20177703 1392.98410899 -1287.3282417 1397.55359523 -1296.4544425 1402.12361073 C-1299.36249476 1403.57967067 -1302.27077211 1405.03528023 -1305.17908096 1406.49082756 C-1309.78801484 1408.79777643 -1314.39587164 1411.10686399 -1319.00296402 1413.4174881 C-1320.6781669 1414.25731541 -1322.35368244 1415.09651946 -1324.0295639 1415.93499184 C-1332.52063699 1420.18382102 -1340.97347166 1424.49123791 -1349.36471558 1428.93434143 C-1359.36065046 1434.22450393 -1369.46106041 1439.2940429 -1379.58203125 1444.33984375 C-1381.56392262 1445.32982673 -1383.54572115 1446.31999558 -1385.5274353 1447.31033325 C-1389.75374661 1449.42192342 -1393.98067288 1451.53227541 -1398.20809937 1453.64163208 C-1404.91174912 1456.98662073 -1411.61381841 1460.33476771 -1418.31567383 1463.68334961 C-1427.72582623 1468.38477512 -1437.1365346 1473.08508589 -1446.54785156 1477.78417969 C-1447.14220855 1478.08094427 -1447.73656554 1478.37770886 -1448.34893334 1478.68346632 C-1453.16921151 1481.09023434 -1457.98952652 1483.4969286 -1462.80984306 1485.90361977 C-1467.02396209 1488.0076521 -1471.23806638 1490.11171394 -1475.45214844 1492.21582031 C-1476.04576113 1492.51221259 -1476.63937382 1492.80860488 -1477.25097477 1493.11397874 C-1487.20215155 1498.08268845 -1497.15251261 1503.0530299 -1507.10233212 1508.02445698 C-1513.74548818 1511.3435651 -1520.38961013 1514.66072889 -1527.03451538 1517.97633362 C-1531.18786351 1520.04924146 -1535.34035591 1522.1238591 -1539.49263382 1524.19890976 C-1541.39680365 1525.15006973 -1543.30131447 1526.10054746 -1545.20621872 1527.05023575 C-1554.35286856 1531.6107227 -1563.46801288 1536.21584538 -1572.5 1541 C-1582.44984365 1546.27033419 -1592.50581636 1551.31635594 -1602.58203125 1556.33984375 C-1604.56392262 1557.32982673 -1606.54572115 1558.31999558 -1608.5274353 1559.31033325 C-1612.75374661 1561.42192342 -1616.98067288 1563.53227541 -1621.20809937 1565.64163208 C-1627.91174912 1568.98662073 -1634.61381841 1572.33476771 -1641.31567383 1575.68334961 C-1650.72582623 1580.38477512 -1660.1365346 1585.08508589 -1669.54785156 1589.78417969 C-1670.14220855 1590.08094427 -1670.73656554 1590.37770886 -1671.34893334 1590.68346632 C-1676.16921151 1593.09023434 -1680.98952652 1595.4969286 -1685.80984306 1597.90361977 C-1690.02396209 1600.0076521 -1694.23806638 1602.11171394 -1698.45214844 1604.21582031 C-1699.34256747 1604.66040874 -1699.34256747 1604.66040874 -1700.25097477 1605.11397874 C-1710.20215155 1610.08268845 -1720.15251261 1615.0530299 -1730.10233212 1620.02445698 C-1736.74548818 1623.3435651 -1743.38961013 1626.66072889 -1750.03451538 1629.97633362 C-1754.18786351 1632.04924146 -1758.34035591 1634.1238591 -1762.49263382 1636.19890976 C-1764.39680365 1637.15006973 -1766.30131447 1638.10054746 -1768.20621872 1639.05023575 C-1779.12478673 1644.49419478 -1789.97727864 1650.04314368 -1800.75556946 1655.76020813 C-1806.82458784 1658.97521061 -1812.94698513 1662.08413606 -1819.0859375 1665.16308594 C-1820.39203534 1665.81946674 -1821.69666499 1666.47877519 -1823 1667.140625 C-1824.93461086 1668.12304458 -1826.8729887 1669.09761071 -1828.8125 1670.0703125 C-1830.49279297 1670.91746826 -1830.49279297 1670.91746826 -1832.20703125 1671.78173828 C-1835 1673 -1835 1673 -1838 1673 C-1838 1612.28 -1838 1551.56 -1838 1489 C-1816.17657492 1477.5139868 -1816.17657492 1477.5139868 -1809.25024414 1474.06835938 C-1808.43070535 1473.65851555 -1807.61116655 1473.24867172 -1806.76679325 1472.82640839 C-1804.10719555 1471.49694795 -1801.44619358 1470.17032618 -1798.78515625 1468.84375 C-1796.84267322 1467.87347127 -1794.90028306 1466.90300658 -1792.95797729 1465.93237305 C-1788.81678982 1463.86334438 -1784.67498754 1461.79555374 -1780.53268433 1459.72875977 C-1773.96345346 1456.45098276 -1767.39580466 1453.17004427 -1760.82836914 1449.88867188 C-1745.70477752 1442.3328624 -1730.57917049 1434.78109097 -1715.45353699 1427.22937012 C-1701.57536672 1420.30041312 -1687.69763913 1413.37057322 -1673.82153606 1406.43747711 C-1667.31218644 1403.18527156 -1660.80187119 1399.93501009 -1654.29077148 1396.68630981 C-1650.2204587 1394.65492076 -1646.15100246 1392.6218203 -1642.08176041 1390.58828735 C-1640.21629208 1389.6564778 -1638.35048291 1388.72535018 -1636.48427963 1387.79501343 C-1626.59877831 1382.86643037 -1616.76903339 1377.8528566 -1607.00693864 1372.6839577 C-1598.63028922 1368.25726075 -1590.16448653 1364.01559876 -1581.68676758 1359.78662109 C-1579.9222021 1358.90449208 -1578.1577254 1358.02218548 -1576.39332867 1357.13971901 C-1571.73364043 1354.80976354 -1567.07276582 1352.48219139 -1562.41161346 1350.15516663 C-1558.01308167 1347.95878104 -1553.61566175 1345.76017409 -1549.21813965 1343.56176758 C-1536.41735648 1337.16398359 -1523.61482487 1330.7696984 -1510.8125 1324.375 C-1482.164375 1310.06125 -1453.51625 1295.7475 -1424 1281 C-1423.67 1192.56 -1423.34 1104.12 -1423 1013 C-1251.73 1013 -1080.46 1013 -904 1013 C-904 1091.87 -904 1170.74 -904 1252 C-900.7 1252.99 -897.4 1253.98 -894 1255 C-892.11484025 1255.64495451 -890.23576294 1256.30844316 -888.36791992 1257.00195312 C-887.38008514 1257.36704483 -886.39225037 1257.73213654 -885.3744812 1258.10829163 C-884.33695709 1258.49536789 -883.29943298 1258.88244415 -882.23046875 1259.28125 C-880.57146042 1259.89612526 -880.57146042 1259.89612526 -878.87893677 1260.52342224 C-875.31394032 1261.84578397 -871.75067596 1263.17274154 -868.1875 1264.5 C-865.72100541 1265.41625354 -863.25445243 1266.33234992 -860.7878418 1267.24829102 C-847.5012126 1272.18615645 -834.22771793 1277.15611876 -820.98364258 1282.20703125 C-812.29768893 1285.51767956 -803.59065234 1288.76858502 -794.875 1292 C-794.17386078 1292.25997772 -793.47272156 1292.51995544 -792.75033569 1292.78781128 C-789.75694756 1293.89767631 -786.76354104 1295.00749171 -783.77009583 1296.11720276 C-773.35803779 1299.97811206 -762.95075681 1303.85186221 -752.54400635 1307.72705078 C-750.28837622 1308.56685694 -748.03264116 1309.4063813 -745.77679443 1310.24560547 C-742.58271356 1311.4338904 -739.38897515 1312.62309157 -736.1953125 1313.8125 C-735.2579425 1314.16103027 -734.32057251 1314.50956055 -733.35479736 1314.86865234 C-726.21589003 1317.52914223 -719.11192467 1320.26464436 -712 1323 C-712 1053.39 -712 783.78 -712 506 C-626.385625 505.979375 -540.77125 505.95875 -452.5625 505.9375 C-425.47615479 505.928396 -398.38980957 505.91929199 -370.48266602 505.90991211 C-337.54284668 505.90539551 -337.54284668 505.90539551 -322.14854431 505.90455627 C-310.62569542 505.90355847 -299.10285251 505.89923481 -287.58000551 505.89332657 C-275.84451775 505.88739023 -264.10903401 505.88523824 -252.37354481 505.88655505 C-245.99764941 505.88716062 -239.62176506 505.88616347 -233.24587166 505.88078487 C-227.49222285 505.87596038 -221.73859303 505.87564904 -215.98494339 505.87909889 C-213.89375709 505.87952659 -211.80256964 505.87822724 -209.71138561 505.87511742 C-206.883721 505.87115607 -204.05612649 505.87323536 -201.22846317 505.87695217 C-200.39839918 505.87432515 -199.5683352 505.87169812 -198.71311775 505.86899149 C-193.11414527 505.88585473 -193.11414527 505.88585473 -192 507 C-191.90240468 508.64417053 -191.87552731 510.29256796 -191.8758015 511.93963248 C-191.87243056 513.55774789 -191.87243056 513.55774789 -191.86899152 515.20855251 C-191.87161854 516.41078892 -191.87424555 517.61302533 -191.87695217 518.85169315 C-191.87579833 520.12081564 -191.87464448 521.38993812 -191.87345567 522.69751886 C-191.87036649 526.25222628 -191.87357835 529.80690542 -191.87773381 533.36161075 C-191.88115093 537.21670238 -191.87880049 541.07179097 -191.87715632 544.92688316 C-191.87507656 551.69397199 -191.87673656 558.46105206 -191.88079453 565.22813988 C-191.88681194 575.29066442 -191.88713197 585.35318339 -191.88625254 595.41570941 C-191.88493638 612.33976399 -191.88828857 629.26381467 -191.89426994 646.18786812 C-191.90018004 662.9531004 -191.90403449 679.71833106 -191.90512276 696.48356438 C-191.9051915 697.52464207 -191.90526024 698.56571976 -191.90533106 699.63834526 C-191.90566938 704.92511003 -191.90597077 710.2118748 -191.90625793 715.49863958 C-191.90836026 752.97817944 -191.91510295 790.45771719 -191.92456055 827.93725586 C-191.93373984 864.35587554 -191.94082597 900.77449463 -191.94506836 937.19311523 C-191.94519989 938.3150197 -191.94533141 939.43692416 -191.94546692 940.59282573 C-191.9467854 951.85909945 -191.94806122 963.12537317 -191.94930578 974.3916469 C-191.95184223 997.34385655 -191.95466348 1020.29606616 -191.95765686 1043.24827576 C-191.95779415 1044.30366065 -191.95793144 1045.35904554 -191.95807289 1046.44641179 C-191.96727888 1116.96427541 -191.98312469 1187.48213785 -192 1258 C-188.09832329 1255.71714313 -184.19718915 1253.43336241 -180.29650879 1251.14880371 C-178.97552338 1250.3752883 -177.65440192 1249.60200519 -176.33312988 1248.82897949 C-167.68982308 1243.7718479 -159.07601694 1238.67068646 -150.5 1233.5 C-141.57616203 1228.1271838 -132.61652557 1222.82088762 -123.625 1217.5625 C-110.84360102 1210.08744653 -98.09706151 1202.55554252 -85.36474609 1194.99707031 C-79.64054695 1191.59959905 -73.91403492 1188.20603231 -68.1875 1184.8125 C-67.06432373 1184.14686035 -65.94114746 1183.4812207 -64.78393555 1182.79541016 C-52.22927926 1175.35622446 -39.66446336 1167.93426101 -27.09765625 1160.515625 C-25.62969604 1159.64877075 -25.62969604 1159.64877075 -24.13208008 1158.7644043 C-22.28183764 1157.67181302 -20.43142886 1156.57950334 -18.58081055 1155.48754883 C-16.9348124 1154.51549034 -15.29837002 1153.52695725 -13.67471313 1152.51802421 C-11 1151 -11 1151 -8.36650092 1150.05181711 C-5.18713335 1148.73973869 -3.31433429 1147.56935685 -1 1145 C0.56542779 1138.83113437 0.33473104 1132.70986144 0.24609566 1126.37982368 C0.25519834 1124.42009127 0.26868813 1122.46037516 0.28617692 1120.50069964 C0.32166946 1115.08684088 0.29450381 1109.67479399 0.25760114 1104.26101067 C0.22848728 1098.3824634 0.25722585 1092.504161 0.2787751 1086.62562072 C0.30853859 1076.31354848 0.30135958 1066.00197516 0.26943016 1055.68992043 C0.23535913 1044.62376459 0.22306535 1033.55790366 0.23747826 1022.49170113 C0.23882355 1021.4438695 0.23882355 1021.4438695 0.24019602 1020.37486957 C0.2448697 1016.8130318 0.24989896 1013.25119463 0.25505381 1009.68935753 C0.2916522 983.89826294 0.27986097 958.10737176 0.24249649 932.31628799 C0.2056306 906.77160577 0.18941988 881.22704676 0.20095444 855.68233871 C0.20130313 854.8892813 0.20165181 854.09622388 0.20201107 853.27913441 C0.20520675 846.03587114 0.20865734 838.79260801 0.2124138 831.54934501 C0.22174919 813.54268786 0.22788712 795.53603038 0.23185539 777.52937126 C0.23213031 776.29933984 0.23213031 776.29933984 0.23241079 775.04445929 C0.24104907 735.14648421 0.21284959 695.2485464 0.18164062 655.35058594 C0.17082969 641.50356063 0.16018153 627.65653522 0.15020752 613.80950928 C0.1492794 612.52133405 0.1492794 612.52133405 0.14833253 611.20713509 C0.11979967 571.29542957 0.11751664 531.38373534 0.1217952 491.47202147 C0.12207097 488.86094385 0.12232946 486.24986623 0.12258226 483.63878861 C0.12522456 456.42785753 0.12912909 429.21692665 0.13358116 402.00599581 C0.13370827 401.22859133 0.13383537 400.45118685 0.13396633 399.65022466 C0.13419839 398.23570858 0.13443187 396.8211925 0.13466752 395.40667642 C0.15635664 263.60437884 0.06994786 131.80234065 0 0 Z " fill="#FEFEFE" transform="translate(2284,1188)"/>
<path d="M0 0 C171.27 0 342.54 0 519 0 C519.33 276.54 519.66 553.08 520 838 C513.07 841.96 506.14 845.92 499 850 C494.98802295 852.37970033 490.98648364 854.76670372 487 857.1875 C477.91338707 862.67134309 468.78698422 868.08104262 459.625 873.4375 C446.8433354 880.91209566 434.09705746 888.44445988 421.36474609 896.00292969 C415.64054695 899.40040095 409.91403492 902.79396769 404.1875 906.1875 C402.5027356 907.18595947 402.5027356 907.18595947 400.78393555 908.20458984 C389.31310614 915.00156048 377.83335818 921.78339858 366.35253906 928.56347656 C355.39669683 935.03390599 344.44532006 941.51178487 333.5 948 C320.79142444 955.5334455 308.07352377 963.05101012 295.35253906 970.56347656 C284.39669683 977.03390599 273.44532006 983.51178487 262.5 990 C249.79142444 997.5334455 237.07352377 1005.05101012 224.35253906 1012.56347656 C213.39669683 1019.03390599 202.44532006 1025.51178487 191.5 1032 C178.79142444 1039.5334455 166.07352377 1047.05101012 153.35253906 1054.56347656 C142.39669683 1061.03390599 131.44532006 1067.51178487 120.5 1074 C107.79142444 1081.5334455 95.07352377 1089.05101012 82.35253906 1096.56347656 C71.97396403 1102.69297677 61.5988318 1108.82820964 51.23016357 1114.97445679 C47.24564873 1117.33625206 43.26073254 1119.69737015 39.27587891 1122.05859375 C37.14517479 1123.32132733 35.01463217 1124.58433347 32.88427734 1125.84765625 C29.9859702 1127.5661508 27.0868326 1129.28323625 24.1875 1131 C23.35992188 1131.49113281 22.53234375 1131.98226562 21.6796875 1132.48828125 C14.49570536 1136.73909046 7.25062889 1140.85678349 0 1145 C0 767.15 0 389.3 0 0 Z " fill="#72E59A" transform="translate(2284,1188)"/>
<path d="M0 0 C85.614375 -0.020625 171.22875 -0.04125 259.4375 -0.0625 C286.52384521 -0.071604 313.61019043 -0.08070801 341.51733398 -0.09008789 C374.45715332 -0.09460449 374.45715332 -0.09460449 389.85145569 -0.09544373 C401.37430458 -0.09644153 412.89714749 -0.10076519 424.41999449 -0.10667343 C436.15548225 -0.11260977 447.89096599 -0.11476176 459.62645519 -0.11344495 C466.00235059 -0.11283938 472.37823494 -0.11383653 478.75412834 -0.11921513 C484.50777715 -0.12403962 490.26140697 -0.12435096 496.01505661 -0.12090111 C498.10624291 -0.12047341 500.19743036 -0.12177276 502.28861439 -0.12488258 C505.116279 -0.12884393 507.94387351 -0.12676464 510.77153683 -0.12304783 C511.60160082 -0.12567485 512.4316648 -0.12830188 513.28688225 -0.13100851 C518.88585473 -0.11414527 518.88585473 -0.11414527 520 1 C520.10829197 2.63942807 520.14643366 4.28352011 520.15756786 5.92648315 C520.16724568 7.00230435 520.17692351 8.07812556 520.1868946 9.1865474 C520.19255716 10.38552875 520.19821972 11.5845101 520.20405388 12.81982422 C520.21389602 14.08554193 520.22373816 15.35125965 520.23387855 16.65533245 C520.2612237 20.20057634 520.28219736 23.74583438 520.30210567 27.29112682 C520.32468751 31.13626749 520.35276041 34.98136894 520.3799926 38.82647896 C520.43306979 46.46756476 520.48019572 54.10867733 520.52525933 61.74981418 C520.56282171 68.10522416 520.60259295 74.46061716 520.64361572 80.81600571 C520.93238648 125.69493669 521.15460815 170.57406632 521.32131958 215.45361328 C521.32721338 217.04016509 521.32721338 217.04016509 521.33322624 218.65876845 C521.42240724 242.76564637 521.50288835 266.87254436 521.57461791 290.97948034 C521.60495852 301.12987783 521.6364832 311.2802716 521.66845703 321.43066406 C521.67196616 322.55227998 521.67547528 323.67389589 521.67909075 324.82950017 C521.79349561 361.17806938 522.00468526 397.52527725 522.26715248 433.87305433 C522.53643059 471.23199301 522.71070659 508.59018416 522.76462672 545.95008467 C522.77228271 551.22844355 522.78100867 556.50680015 522.79037857 561.78515625 C522.79218734 562.82399272 522.7939961 563.86282919 522.79585968 564.93314555 C522.82771847 581.64637344 522.95927559 598.35739557 523.12809019 615.06973909 C523.29568749 631.87686567 523.3571867 648.68175099 523.31105314 665.48967278 C523.28684097 675.47398066 523.3431585 685.45018711 523.51599196 695.4330693 C523.62356205 702.10953705 523.62489418 708.78068939 523.54144676 715.45748524 C523.49689796 719.26149904 523.49697986 723.05025183 523.62729107 726.85263634 C524.21500587 745.0680109 524.21500587 745.0680109 520 753 C513.41264392 759.632049 505.14949309 763.63970887 496.68448118 767.39200225 C489.79188994 770.44903069 483.48587505 774.31310675 477.0625 778.25 C474.82837986 779.58526635 472.58811204 780.90973189 470.34765625 782.234375 C468.74301514 783.18666992 468.74301514 783.18666992 467.10595703 784.15820312 C462.40730496 786.94444988 457.70385237 789.72254457 453 792.5 C444.82875796 797.32562542 436.66319165 802.16077013 428.5 807 C419.4535553 812.36283201 410.40297218 817.71856871 401.34765625 823.06640625 C394.06101322 827.37070772 386.77995717 831.68440262 379.5 836 C366.79145636 843.53349922 354.07352367 851.05101018 341.35253906 858.56347656 C329.243514 865.71496619 317.14075508 872.8769399 305.04394531 880.04907227 C299.73107266 883.19852195 294.41702289 886.34590364 289.09765625 889.484375 C288.17235107 890.03085693 287.2470459 890.57733887 286.29370117 891.14038086 C284.49249367 892.20191309 282.6893086 893.26009787 280.8840332 894.31469727 C276.36042312 896.96632454 271.90490996 899.68571391 267.5078125 902.54296875 C266.16674438 903.39713379 266.16674438 903.39713379 264.79858398 904.26855469 C263.1115582 905.34686308 261.43790071 906.44651253 259.78149414 907.57128906 C256.11484615 909.89148945 253.3442915 911.51221517 248.95703125 910.70703125 C247.28739317 910.19096789 245.63702451 909.61168905 244 909 C242.80528076 908.56872803 241.61056152 908.13745605 240.37963867 907.69311523 C236.06286371 906.1051037 231.78156066 904.43016546 227.5 902.75 C224.59513088 901.61621842 221.68876899 900.48634319 218.78125 899.359375 C217.68907921 898.93574425 217.68907921 898.93574425 216.57484436 898.5035553 C210.9361912 896.32982946 205.25512277 894.29964999 199.54954529 892.30949402 C191.52627665 889.50285592 183.57170936 886.51622161 175.61645508 883.52319336 C173.06864745 882.56481242 170.51975413 881.60936514 167.97070312 880.65429688 C159.89497603 877.62374829 151.83774635 874.55427099 143.80859375 871.40234375 C137.35057522 868.8712474 130.85223195 866.49446579 124.30314636 864.2102356 C116.57971679 861.51549506 108.91464233 858.66939177 101.25 855.8125 C99.71680126 855.24217572 98.18359804 854.67186346 96.65039062 854.1015625 C86.08923152 850.16931303 75.54916774 846.18358545 65.01708984 842.17407227 C55.31970542 838.48756831 45.60121358 834.85965296 35.875 831.25 C34.81333618 830.85590942 34.81333618 830.85590942 33.73022461 830.45385742 C22.4935542 826.28420933 11.24639818 822.14340986 0 818 C0 548.06 0 278.12 0 0 Z " fill="#72E59A" transform="translate(1572,1694)"/>
<path d="M0 0 C0 230.01 0 460.02 0 697 C-171.27 697 -342.54 697 -519 697 C-519.309375 632.670625 -519.61875 568.34125 -519.9375 502.0625 C-520.07406006 481.73148682 -520.21062012 461.40047363 -520.35131836 440.45336914 C-520.41906738 415.67468262 -520.41906738 415.67468262 -520.43165588 404.08396912 C-520.44566224 395.96787084 -520.50075443 387.85331582 -520.58363342 379.73765564 C-520.67905412 370.38007165 -520.72255551 361.02397103 -520.70167426 351.66589674 C-520.69262763 346.87703374 -520.70705301 342.09148628 -520.78822696 337.3032304 C-520.86121685 332.9714332 -520.8648963 328.64529318 -520.81351662 324.31323624 C-520.80715948 322.74862642 -520.82616631 321.18366247 -520.87323868 319.619748 C-521.01051606 314.77367203 -520.8522224 310.56562107 -519 306 C-515.32605212 302.24898542 -510.63389668 300.05280339 -505.90911073 297.90334754 C-502.94145058 296.49911862 -500.20099756 294.7928678 -497.40234375 293.078125 C-495.24767199 291.80161709 -493.09271896 290.52558383 -490.9375 289.25 C-489.76601747 288.55625809 -488.59454968 287.8624913 -487.4230957 287.16870117 C-475.73805598 280.24926822 -464.04579578 273.34205793 -452.35253906 266.43652344 C-440.81700134 259.62373067 -429.28695609 252.80175969 -417.76260376 245.97006226 C-409.29521716 240.95066832 -400.82327258 235.93907556 -392.34765625 230.93359375 C-385.06101322 226.62929228 -377.77995717 222.31559738 -370.5 218 C-357.79145636 210.46650078 -345.07352367 202.94898982 -332.35253906 195.43652344 C-320.81700134 188.62373067 -309.28695609 181.80175969 -297.76260376 174.97006226 C-289.29521716 169.95066832 -280.82327258 164.93907556 -272.34765625 159.93359375 C-265.06101322 155.62929228 -257.77995717 151.31559738 -250.5 147 C-237.79145636 139.46650078 -225.07352367 131.94898982 -212.35253906 124.43652344 C-200.81700134 117.62373067 -189.28695609 110.80175969 -177.76260376 103.97006226 C-169.29521716 98.95066832 -160.82327258 93.93907556 -152.34765625 88.93359375 C-145.06101322 84.62929228 -137.77995717 80.31559738 -130.5 76 C-117.79145636 68.46650078 -105.07352367 60.94898982 -92.35253906 53.43652344 C-81.39669683 46.96609401 -70.44532006 40.48821513 -59.5 34 C-50.35092047 28.57656826 -41.20138611 23.15391476 -32.04003906 17.7512207 C-27.29043696 14.94955334 -22.54889502 12.13518335 -17.81640625 9.3046875 C-16.80167236 8.69971436 -15.78693848 8.09474121 -14.74145508 7.47143555 C-12.7847493 6.30456628 -10.83006977 5.13429079 -8.87768555 3.96020508 C-8.00539307 3.44095459 -7.13310059 2.9217041 -6.234375 2.38671875 C-5.46319336 1.92483154 -4.69201172 1.46294434 -3.89746094 0.98706055 C-2 0 -2 0 0 0 Z " fill="#72E59A" transform="translate(2803,2382)"/>
<path d="M0 0 C1.59599741 0.64126846 3.19253301 1.28119876 4.78955078 1.91992188 C5.60482239 2.24822998 6.42009399 2.57653809 7.2600708 2.91479492 C11.1794678 4.47284757 15.13096804 5.94135122 19.0859375 7.40625 C19.88726608 7.70394791 20.68859467 8.00164581 21.51420593 8.30836487 C23.18847183 8.93002467 24.86295057 9.5511115 26.53762817 10.17166138 C29.24817204 11.17613713 31.95802649 12.18245408 34.66772461 13.18920898 C38.59436464 14.64799795 42.52121246 16.10622526 46.44824219 17.56396484 C56.44906699 21.27670045 66.44842137 24.99338 76.44631958 28.71398926 C79.6902988 29.92074442 82.93486013 31.12592467 86.17944336 32.33105469 C95.1941839 35.68370615 104.19645751 39.05703565 113.1484375 42.57421875 C119.43578444 45.04270203 125.7621717 47.35576377 132.1401825 49.57855225 C141.29815167 52.77630472 150.37726584 56.18663846 159.46484375 59.578125 C161.37392956 60.2893402 163.28302803 61.00052141 165.19213867 61.71166992 C174.51288925 65.18639211 183.82716497 68.67718039 193.12329102 72.21728516 C208.94813813 78.24004918 224.8099783 84.058841 240.71484375 89.890625 C240.71484375 188.890625 240.71484375 287.890625 240.71484375 389.890625 C69.44484375 389.890625 -101.82515625 389.890625 -278.28515625 389.890625 C-278.28515625 303.430625 -278.28515625 216.970625 -278.28515625 127.890625 C-267.28964787 122.10351532 -256.31985983 116.32995186 -245.20150757 110.79214478 C-244.38570599 110.38549213 -243.5699044 109.97883949 -242.72938156 109.55986404 C-241.8854044 109.13921047 -241.04142723 108.7185569 -240.171875 108.28515625 C-238.34761696 107.37399029 -236.52345196 106.46263804 -234.69937134 105.55111694 C-230.81355538 103.6097727 -226.92712519 101.66966595 -223.04019165 99.7305603 C-216.8742172 96.65441871 -210.70983005 93.57510532 -204.5456543 90.49536133 C-190.3509274 83.40398094 -176.15418392 76.31664145 -161.95741272 69.22935486 C-148.93020266 62.72588171 -135.90343726 56.22152185 -122.87829685 49.71390438 C-116.7703666 46.6624064 -110.66147155 43.61285169 -104.55178833 40.56486511 C-100.73058145 38.65803267 -96.9102338 36.74948355 -93.09009933 34.84050369 C-91.34073554 33.96674531 -89.59103141 33.09366787 -87.84093094 32.22138596 C-76.65709785 26.64658031 -65.56132667 20.92459671 -54.52009964 15.07247162 C-48.33823518 11.80347803 -42.13856015 8.57076972 -35.91040039 5.39086914 C-34.34496552 4.58691679 -32.78352337 3.77515005 -31.22583008 2.95629883 C-28.91774079 1.7445579 -26.5976179 0.55942557 -24.2734375 -0.62109375 C-23.58687576 -0.98861252 -22.90031403 -1.35613129 -22.19294739 -1.73478699 C-14.2736235 -5.67958927 -7.70582995 -3.1993716 0 0 Z " fill="#72E59A" transform="translate(1139.28515625,2689.109375)"/>
<path d="M0 0 C171.27 0 342.54 0 519 0 C519 78.54 519 157.08 519 238 C513.04781273 236.67729172 507.76315043 235.35400194 502.1640625 233.19140625 C501.42740356 232.91288315 500.69074463 232.63436005 499.9317627 232.34739685 C497.49406768 231.42455021 495.05961806 230.49343032 492.625 229.5625 C489.98258625 228.5600126 487.33931987 227.5597954 484.6960144 226.55966187 C482.81369361 225.84731829 480.93163979 225.13426888 479.04983521 224.42056274 C471.59546387 221.59533763 464.12857529 218.80470468 456.65625 216.02734375 C455.53133148 215.60916885 454.40641296 215.19099396 453.24740601 214.76014709 C448.78989063 213.10367772 444.33209846 211.44795687 439.87384033 209.79348755 C429.74113034 206.0320601 419.61443962 202.26556662 409.5546875 198.3125 C403.2051956 195.81841101 396.81413049 193.48686346 390.3727417 191.241745 C383.04960957 188.68436286 375.79226843 185.960262 368.53521729 183.22192383 C364.23320009 181.59868555 359.9290515 179.98111621 355.625 178.36328125 C354.707117 178.01814484 353.78923401 177.67300842 352.84353638 177.31741333 C345.46362653 174.54461301 338.07672597 171.79083571 330.6875 169.04296875 C329.5606076 168.62380692 328.43371521 168.20464508 327.27267456 167.77278137 C322.80604223 166.11163067 318.3393154 164.45074081 313.87164307 162.79238892 C302.83401326 158.69514946 291.81261022 154.56825871 280.84861755 150.2774353 C275.82266331 148.31214966 270.78173407 146.40720929 265.6875 144.625 C264.99978516 144.37878906 264.31207031 144.13257812 263.60351562 143.87890625 C257.22207818 141.30525928 257.22207818 141.30525928 250.67243195 141.81184769 C249.44728504 142.48303698 249.44728504 142.48303698 248.1973877 143.16778564 C247.23101128 143.68469341 246.26463486 144.20160118 245.2689743 144.73417282 C244.19601357 145.32366337 243.12305283 145.91315392 242.01757812 146.52050781 C239.55967128 147.8376578 237.09525689 149.14245763 234.63110352 150.44787598 C233.95844751 150.80574117 233.2857915 151.16360637 232.59275198 151.53231597 C223.49738579 156.35591669 214.27298808 160.92395324 205.06054688 165.51855469 C203.12231027 166.48680411 201.18414256 167.45519147 199.24604034 168.42370987 C195.18367229 170.45326554 191.12069261 172.48158979 187.05723572 174.50896454 C180.58816226 177.73662144 174.12070076 180.96749961 167.65344238 184.1987915 C153.9368291 191.05159982 140.21850667 197.90098301 126.5 204.75 C111.65183884 212.16301758 96.80399665 219.57667034 81.95810747 226.99423718 C75.54910881 230.19627002 69.13914554 233.39636058 62.7283926 236.59487963 C58.72582274 238.59239707 54.72410958 240.5916262 50.72261047 242.59128761 C48.88938662 243.50697524 47.05582208 244.42198121 45.22186279 245.33619499 C35.25895259 250.30311474 25.3417917 255.33604949 15.53285933 260.60213447 C10.41872807 263.32817429 5.32745526 265.63224211 0 268 C0 179.56 0 91.12 0 0 Z " fill="#72E59A" transform="translate(861,2201)"/>
<path d="M0 0 C0 91.08 0 182.16 0 276 C-171.6 276 -343.2 276 -520 276 C-520 201.09 -520 126.18 -520 49 C-515.81147493 49.69808751 -512.76444255 50.30689678 -508.92285156 51.74658203 C-507.96034485 52.10430695 -506.99783813 52.46203186 -506.00616455 52.83059692 C-504.46397247 53.41331863 -504.46397247 53.41331863 -502.890625 54.0078125 C-501.80980652 54.41152069 -500.72898804 54.81522888 -499.61541748 55.23117065 C-496.15835633 56.52404697 -492.70421593 57.8245439 -489.25 59.125 C-486.97283276 59.9770344 -484.69549062 60.82860149 -482.41796875 61.6796875 C-472.72844857 65.30654895 -463.05184242 68.95982548 -453.421875 72.7421875 C-447.20635521 75.18182422 -440.95000699 77.46029 -434.64468384 79.65629578 C-426.08192506 82.64876529 -417.602444 85.86196041 -409.11505127 89.06063843 C-403.88010909 91.03353275 -398.64313874 93.00102967 -393.40625 94.96875 C-392.31792877 95.37780075 -391.22960754 95.7868515 -390.10830688 96.20829773 C-382.12959073 99.20525384 -374.14463776 102.18517718 -366.15625 105.15625 C-365.0197702 105.57900711 -363.88329041 106.00176422 -362.71237183 106.43733215 C-358.2802009 108.08567542 -353.84789138 109.73363825 -349.41461182 111.3789978 C-339.44531723 115.07905131 -329.4833057 118.78679233 -319.5859375 122.67578125 C-313.29596011 125.14694662 -306.96475361 127.4502446 -300.58132935 129.66757202 C-294.93453587 131.64098747 -289.34731938 133.75232563 -283.765625 135.90234375 C-282.02085594 136.57102252 -280.27606422 137.23964218 -278.53125 137.90820312 C-275.86276696 138.93143553 -273.19605318 139.9585251 -270.53320312 140.99633789 C-267.90664063 142.01827931 -265.27439312 143.02414553 -262.640625 144.02734375 C-261.84481018 144.3417894 -261.04899536 144.65623505 -260.22906494 144.98020935 C-256.14081716 146.52112988 -253.27968856 147.59339014 -249 146 C-246.99462954 145.06509633 -246.99462954 145.06509633 -245.0859375 143.83984375 C-244.33908691 143.38424072 -243.59223633 142.9286377 -242.82275391 142.45922852 C-242.01499512 141.95705811 -241.20723633 141.4548877 -240.375 140.9375 C-238.5787147 139.84017992 -236.78180575 138.7438803 -234.984375 137.6484375 C-234.02080078 137.05901367 -233.05722656 136.46958984 -232.06445312 135.86230469 C-226.61239487 132.5490239 -221.11701205 129.30896733 -215.625 126.0625 C-214.46503277 125.37590692 -213.30512075 124.68922055 -212.14526367 124.00244141 C-202.3237328 118.18751472 -192.49731735 112.38084164 -182.66943359 106.57666016 C-178.11251507 103.88518587 -173.55629082 101.19253672 -169 98.5 C-163.55892255 95.28459927 -158.11773144 92.06939225 -152.67578125 88.85546875 C-142.61244711 82.91162812 -132.55389578 76.95979271 -122.5 71 C-109.79142444 63.4665545 -97.07352377 55.94898988 -84.35253906 48.43652344 C-72.24859867 41.28803677 -60.15050468 34.12976954 -48.05932617 26.9597168 C-42.66027595 23.75877678 -37.25933258 20.5611902 -31.8515625 17.375 C-30.88968018 16.8080542 -29.92779785 16.2411084 -28.93676758 15.65698242 C-27.0932257 14.57057808 -25.24932538 13.4847817 -23.4050293 12.3996582 C-19.52874033 10.11284031 -15.66740216 7.81081355 -11.85546875 5.41796875 C-11.24622559 5.03576172 -10.63698242 4.65355469 -10.00927734 4.25976562 C-8.45595906 3.27815787 -6.90926673 2.28608525 -5.36328125 1.29296875 C-3 0 -3 0 0 0 Z " fill="#72E59A" transform="translate(2092,2803)"/>
</svg>
